Motion_pl15
version=1
nRows=8
nColumns=43
inDegrees=yes
endheader
time	pelvis_tilt	pelvis_list	pelvis_rotation	pelvis_tx	pelvis_ty	pelvis_tz	hip_flexion_r	hip_adduction_r	hip_rotation_r	knee_angle_r	ankle_angle_r	subtalar_angle_r	mtp_angle_r	hip_flexion_l	hip_adduction_l	hip_rotation_l	knee_angle_l	ankle_angle_l	subtalar_angle_l	mtp_angle_l	lumbar_extension	lumbar_bending	lumbar_rotation	neck_flexion	neck_lateral_bending	neck_rotation	arm_flex_r	arm_add_r	arm_rot_r	elbow_flex_r	pro_sup_r	wrist_flex_r	wrist_dev_r	hand_finger_flex_r	arm_flex_l	arm_add_l	arm_rot_l	elbow_flex_l	pro_sup_l	wrist_flex_l	wrist_dev_l	hand_finger_flex_l
      1.71000000	     -0.08805636	     -1.74135855	     83.42435750	      0.02012477	      1.61660703	      1.07206595	     56.94703020	      1.75785455	     -1.23900046	    -81.30758874	    -15.41715675	     -1.62796627	      3.14925441	     59.37856714	     -7.13620455	      1.27148938	    -65.47877017	    -14.82582926	     -2.98547733	      9.97557784	    -48.82003096	     -2.45871017	      8.11039650	     19.41070482	      5.37764289	     -5.65555353	     32.06231666	    -41.21788227	      4.19670077	     47.08292080	    104.80523265	      9.74459272	      8.07641842	    -34.03826640	     13.15203418	    -38.57313742	     11.70326018	     75.88119460	    126.99330895	    -26.52600720	     -4.69577658	     -8.76034946
      1.71250000	     -0.11712748	     -1.56937463	     83.45806180	      0.01976629	      1.61112796	      1.06599868	     56.57693757	      1.70765918	     -1.20094097	    -80.47032586	    -15.54754721	     -1.47738315	      3.16497633	     58.89144288	     -7.11218261	      1.12567742	    -64.77038542	    -15.16627556	     -2.81321905	      9.94518218	    -48.64982461	     -2.45461761	      8.16648429	     18.69269246	      5.53972598	     -5.75482784	     30.00966288	    -41.55406711	      3.99572081	     46.75712428	    104.62850122	      9.84605589	      8.09525042	    -34.02013146	     11.29043916	    -38.74327326	     11.45602403	     75.47865046	    126.98305995	    -26.65768362	     -4.71071623	     -8.82865719
      1.71500000	     -0.21368684	     -1.38060841	     83.46465766	      0.01929206	      1.60586449	      1.05982806	     56.15008005	      1.60244939	     -1.09223053	    -79.60981434	    -15.54548418	     -1.14950065	      3.28751430	     58.28785030	     -7.02501955	      0.94653095	    -63.95009232	    -15.41741903	     -2.58094301	      9.96044337	    -48.60806434	     -2.53101375	      8.25122486	     18.55411871	      5.59646829	     -5.90797744	     27.60154901	    -41.67984234	      2.72750780	     46.60911691	    104.00399830	      9.80796327	      7.89365221	    -34.03423153	      9.32270249	    -38.69093330	     10.83051386	     75.15912313	    127.14372548	    -26.75914686	     -5.10307731	     -8.95318157
      1.71750000	     -0.23594904	     -1.21314867	     83.51434322	      0.01898123	      1.60020068	      1.05366986	     55.77689545	      1.54800999	     -1.07973785	    -78.79602163	    -15.69932227	     -1.02344506	      3.29596256	     57.78174727	     -7.01358079	      0.77850088	    -63.22792306	    -15.75431502	     -2.41810298	      9.92031042	    -48.40556307	     -2.51553883	      8.29923613	     17.79317973	      5.79723500	     -6.02450743	     25.48260914	    -41.94110129	      2.48000549	     46.32100374	    103.85286826	      9.91544999	      7.91724059	    -34.01013518	      7.46039177	    -38.85836754	     10.60216141	     74.72634970	    127.13029489	    -26.91376728	     -5.08897063	     -9.04031508
      1.72000000	     -0.35307072	     -1.01386526	     83.54653549	      0.01849085	      1.59472820	      1.04737535	     55.34323971	      1.40387213	     -0.97318975	    -77.96526544	    -15.71682475	     -0.77114503	      3.40798273	     57.16049644	     -6.89630387	      0.58495493	    -62.43089980	    -15.99563467	     -2.19007787	      9.91516504	    -48.35720514	     -2.59799507	      8.41903012	     17.69234566	      5.85580361	     -6.22210268	     22.85736548	    -41.95435598	      0.84020030	     46.27244805	    103.22452468	      9.86896410	      7.72176651	    -34.01633998	      5.54311830	    -38.77742415	     10.03010269	     74.40444220	    127.32230418	    -27.06162901	     -5.44545875	     -9.25236769
      1.72250000	     -0.44875894	     -0.82194123	     83.60930644	      0.01808768	      1.58905300	      1.04108273	     54.91440213	      1.27954992	     -0.88969447	    -77.14592200	    -15.79961930	     -0.60110024	      3.51377973	     56.57450951	     -6.81963342	      0.32208758	    -61.67032957	    -16.28549735	     -2.00248818	      9.89455491	    -48.23046209	     -2.64567049	      8.59175576	     17.27579431	      5.99131820	     -6.52608915	     20.14445337	    -42.00296701	     -0.66246430	     46.33993278	    102.92747669	      9.97477067	      7.72952922	    -33.96829141	      3.83700762	    -38.78347815	      9.76941255	     73.94316179	    127.52546421	    -27.05470179	     -5.63746245	     -9.52281716
      1.72500000	     -0.46604315	     -0.64338419	     83.64723671	      0.01766197	      1.58303417	      1.03471982	     54.54160999	      1.19507320	     -0.90743177	    -76.39778774	    -15.96234604	     -0.52225096	      3.50445200	     56.05665183	     -6.79146296	      0.18068981	    -61.00136890	    -16.63867688	     -1.84958171	      9.84222032	    -47.98299967	     -2.62331035	      8.70091465	     16.43680439	      6.19251357	     -6.65418711	     17.92833304	    -42.16929097	     -1.00856930	     46.02163419	    102.82723148	     10.09133814	      7.75272031	    -33.93698763	      1.95298502	    -38.89412378	      9.55868727	     73.54601197	    127.47456060	    -27.27721889	     -5.55689143	     -9.68239305
      1.72750000	     -0.60902296	     -0.41783612	     83.70693398	      0.01732131	      1.57724792	      1.02831154	     54.08329240	      0.98260964	     -0.87728135	    -75.62580224	    -15.98137844	     -0.31579602	      3.59641902	     55.37704103	     -6.67227624	     -0.10999518	    -60.19105910	    -16.90837399	     -1.64543823	      9.81342211	    -47.91289279	     -2.75888731	      9.10829871	     16.30971468	      6.38780845	     -7.18008426	     14.58684958	    -42.00792399	     -3.69053288	     46.39739315	    102.63381027	     10.31609183	      7.83367752	    -33.80006012	      0.56243276	    -38.90312548	      9.55416406	     73.08059297	    127.85723492	    -26.98773918	     -5.94617377	    -10.25564266
